<?xml version="1.0" standalone="no"?>
<!DOCTYPE svg PUBLIC "-//W3C//DTD SVG 20010904//EN"
 "http://www.w3.org/TR/2001/REC-SVG-20010904/DTD/svg10.dtd">
<svg version="1.0" xmlns="http://www.w3.org/2000/svg"
 width="944.000000pt" height="198.000000pt" viewBox="0 0 944.000000 198.000000"
 preserveAspectRatio="xMidYMid meet">

<g transform="translate(0.000000,198.000000) scale(0.100000,-0.100000)"
fill="#000000" stroke="none">
<path d="M633 1828 c-6 -7 -113 -186 -238 -398 -126 -212 -234 -394 -242 -406
-12 -18 9 -58 235 -445 l248 -424 491 -3 490 -2 238 412 c131 227 238 418 238
424 0 6 -58 118 -129 247 l-129 237 -137 0 c-76 0 -138 -2 -138 -4 0 -2 65
-107 145 -232 80 -125 145 -230 145 -233 -1 -3 -81 -143 -178 -311 l-177 -305
-230 -7 c-126 -5 -292 -7 -369 -5 l-138 2 -174 308 c-96 169 -174 313 -174
320 0 6 78 147 174 312 l173 300 126 3 126 3 60 105 c34 58 61 108 61 110 0 2
-110 4 -244 4 -183 0 -246 -3 -253 -12z"/>
<path d="M1198 1708 c-41 -73 -150 -262 -241 -419 l-164 -286 128 -233 c70
-128 132 -237 137 -242 5 -5 68 -7 140 -6 l132 3 -145 228 c-80 125 -145 231
-145 234 0 4 80 145 177 314 l177 307 240 6 c133 3 298 7 368 9 l127 2 177
-314 c98 -173 177 -319 177 -325 -1 -15 -344 -609 -358 -618 -5 -4 -64 -8
-130 -8 l-120 0 -20 -38 c-12 -20 -38 -67 -59 -104 l-38 -68 246 0 245 0 192
323 c105 177 217 365 249 418 l58 96 -248 424 -247 424 -489 3 -490 2 -76
-132z"/>
<path d="M4190 1285 l0 -295 70 0 70 0 0 295 0 295 -70 0 -70 0 0 -295z"/>
<path d="M6473 1550 c-108 -22 -168 -81 -168 -167 0 -86 51 -125 213 -162 118
-27 152 -44 152 -76 0 -31 -35 -55 -90 -62 -50 -7 -152 13 -203 39 -22 11 -40
18 -42 16 -14 -16 -44 -91 -40 -98 3 -5 38 -20 78 -32 55 -17 97 -22 177 -22
92 -1 112 3 161 25 74 35 104 77 104 146 0 41 -5 57 -25 78 -36 39 -67 52
-187 81 -129 30 -155 45 -151 82 7 60 123 78 242 37 54 -18 58 -16 80 37 15
36 15 38 -5 48 -59 32 -208 47 -296 30z"/>
<path d="M3020 1500 l0 -50 100 0 100 0 0 -230 0 -230 75 0 75 0 0 230 0 230
100 0 100 0 0 50 0 50 -275 0 -275 0 0 -50z"/>
<path d="M5700 1460 l0 -50 -40 0 -40 0 0 -44 c0 -44 0 -45 38 -48 l37 -3 5
-121 c6 -133 16 -161 71 -190 43 -22 125 -29 177 -15 47 13 48 17 28 65 -13
32 -16 34 -58 29 -69 -8 -78 7 -78 133 l0 104 60 0 60 0 0 45 0 45 -60 0 -60
0 0 50 0 50 -70 0 -70 0 0 -50z"/>
<path d="M8880 1460 l0 -50 -40 0 -40 0 0 -44 c0 -44 0 -45 38 -48 l37 -3 5
-121 c6 -133 16 -161 71 -190 43 -22 125 -29 177 -15 47 13 48 17 28 65 -13
32 -16 34 -58 29 -69 -8 -78 7 -78 133 l0 104 60 0 60 0 0 45 0 45 -60 0 -60
0 0 50 0 50 -70 0 -70 0 0 -50z"/>
<path d="M3703 1416 c-34 -8 -71 -19 -82 -26 -22 -11 -21 -20 16 -77 l14 -21
42 19 c25 11 65 19 99 19 46 0 62 -5 87 -26 17 -14 31 -34 31 -45 0 -17 -8
-19 -80 -19 -159 0 -236 -36 -246 -115 -12 -89 77 -150 204 -140 40 3 76 12
98 26 l34 21 0 -21 c0 -19 6 -21 65 -21 l65 0 0 148 c0 133 -2 152 -22 192
-43 83 -178 119 -325 86z m205 -278 c-8 -85 -183 -107 -183 -23 0 40 32 55
118 55 l68 0 -3 -32z"/>
<path d="M4600 1417 c-68 -19 -117 -54 -145 -102 -81 -137 -3 -291 163 -326
95 -19 209 -1 267 44 20 16 19 17 -15 52 l-35 35 -40 -20 c-44 -22 -123 -27
-158 -9 -33 17 -67 51 -67 66 0 10 38 13 185 13 l185 0 0 26 c0 86 -49 167
-124 203 -54 27 -156 35 -216 18z m134 -91 c34 -14 66 -50 66 -73 0 -10 -29
-13 -120 -13 -67 0 -120 4 -120 9 0 16 52 72 74 81 31 13 63 12 100 -4z"/>
<path d="M5248 1415 c-26 -9 -50 -20 -53 -25 -10 -17 -25 -11 -25 10 0 18 -7
20 -65 20 l-65 0 0 -215 0 -215 70 0 70 0 0 125 c0 139 10 173 55 193 47 21
108 15 136 -14 23 -24 24 -33 27 -165 l4 -139 69 0 69 0 0 143 c-1 184 -18
235 -93 273 -42 22 -144 26 -199 9z"/>
<path d="M7126 1416 c-21 -8 -43 -19 -49 -25 -17 -17 -27 -13 -27 9 0 18 -7
20 -65 20 l-65 0 0 -215 0 -215 69 0 69 0 4 141 c3 140 3 141 31 165 40 34
108 34 142 -1 24 -23 25 -29 25 -165 l0 -140 70 0 70 0 0 120 c0 174 19 210
113 210 34 0 49 -6 68 -26 23 -24 24 -33 27 -165 l4 -139 70 0 70 0 -4 158
c-3 175 -13 206 -77 249 -67 45 -195 40 -273 -12 -21 -14 -38 -22 -38 -17 0 5
-18 19 -41 31 -51 29 -140 37 -193 17z"/>
<path d="M7963 1416 c-34 -8 -71 -19 -82 -26 -22 -11 -21 -20 16 -77 l14 -21
42 19 c25 11 65 19 99 19 46 0 62 -5 87 -26 17 -14 31 -34 31 -45 0 -17 -8
-19 -80 -19 -159 0 -236 -36 -246 -115 -12 -89 77 -150 204 -140 40 3 76 12
98 26 l34 21 0 -21 c0 -19 6 -21 65 -21 l65 0 0 148 c0 133 -2 152 -22 192
-43 83 -178 119 -325 86z m205 -278 c-8 -85 -183 -107 -183 -23 0 40 32 55
118 55 l68 0 -3 -32z"/>
<path d="M8677 1416 c-26 -7 -55 -20 -65 -29 -25 -23 -32 -21 -32 8 0 24 -2
25 -65 25 l-65 0 0 -215 0 -215 70 0 70 0 0 120 c0 90 4 129 16 151 17 34 66
59 114 59 30 0 30 0 30 55 0 61 1 61 -73 41z"/>
<path d="M5369 715 c-3 -193 -1 -225 11 -225 6 0 10 55 10 145 0 90 -4 145
-10 145 -6 0 -10 -29 -11 -65z"/>
<path d="M8089 715 c-3 -193 -1 -225 11 -225 6 0 10 55 10 145 0 90 -4 145
-10 145 -6 0 -10 -29 -11 -65z"/>
<path d="M8649 715 c-3 -193 -1 -225 11 -225 6 0 10 55 10 145 0 90 -4 145
-10 145 -6 0 -10 -29 -11 -65z"/>
<path d="M7787 764 c-8 -8 1 -24 14 -24 5 0 9 7 9 15 0 15 -12 20 -23 9z"/>
<path d="M3139 748 c-114 -30 -131 -180 -27 -234 57 -30 188 -18 188 17 0 5
-12 2 -26 -8 -38 -24 -112 -22 -155 5 -41 25 -59 58 -59 108 0 85 131 139 223
92 10 -5 17 -5 17 1 0 5 -23 14 -50 20 -58 12 -62 12 -111 -1z"/>
<path d="M5975 751 c-48 -12 -75 -30 -95 -64 -25 -41 -25 -83 0 -124 26 -44
74 -66 140 -66 97 0 153 47 153 128 0 73 -43 117 -128 128 -22 3 -53 2 -70 -2z
m126 -28 c15 -9 34 -28 43 -43 56 -95 -48 -201 -166 -170 -125 34 -133 182
-13 225 44 16 96 12 136 -12z"/>
<path d="M4460 721 c0 -12 -8 -21 -22 -24 l-23 -4 23 -2 c21 -1 22 -5 22 -81
0 -67 3 -83 20 -100 22 -22 43 -24 75 -9 16 8 15 8 -8 4 -15 -3 -36 -1 -48 5
-18 10 -19 19 -17 93 l3 82 35 6 35 6 -37 2 c-31 1 -38 5 -38 21 0 11 -4 20
-10 20 -5 0 -10 -9 -10 -19z"/>
<path d="M7020 721 c0 -12 -8 -21 -22 -24 l-23 -4 23 -2 c21 -1 22 -5 22 -81
0 -67 3 -83 20 -100 22 -22 43 -24 75 -9 16 8 15 8 -8 4 -15 -3 -36 -1 -48 5
-18 10 -19 19 -17 93 l3 82 35 6 35 6 -37 2 c-31 1 -38 5 -38 21 0 11 -4 20
-10 20 -5 0 -10 -9 -10 -19z"/>
<path d="M3410 687 c-92 -31 -84 -162 11 -187 136 -37 212 132 83 186 -39 17
-48 17 -94 1z m85 -11 c38 -16 55 -42 55 -83 0 -65 -69 -106 -133 -79 -76 31
-78 129 -4 161 40 18 41 18 82 1z"/>
<path d="M3640 595 c0 -63 4 -105 10 -105 6 0 10 31 10 73 0 66 3 76 25 97 31
29 85 32 115 5 17 -15 20 -30 20 -97 0 -45 4 -78 10 -78 14 0 13 133 -1 164
-21 46 -107 56 -151 18 -16 -14 -18 -13 -18 6 0 12 -4 22 -10 22 -6 0 -10 -42
-10 -105z"/>
<path d="M3972 685 c-58 -25 -77 -111 -35 -158 25 -27 86 -40 133 -27 22 6 40
15 40 19 0 5 -17 3 -39 -5 -47 -16 -103 -4 -126 29 -30 43 -22 47 86 47 l101
0 -7 27 c-9 37 -24 53 -62 70 -40 16 -49 16 -91 -2z m83 -9 c31 -13 55 -41 55
-65 0 -7 -33 -11 -90 -11 -49 0 -90 2 -90 4 0 24 26 60 52 71 41 18 33 17 73
1z"/>
<path d="M4250 687 c-49 -17 -76 -72 -60 -122 20 -61 90 -88 155 -60 21 8 36
18 33 20 -3 3 -22 -2 -42 -10 -68 -29 -136 12 -136 80 0 68 68 109 136 80 20
-8 39 -13 42 -10 6 6 -62 35 -80 34 -7 0 -29 -5 -48 -12z"/>
<path d="M4668 693 c-14 -2 -32 -11 -38 -19 -15 -17 1 -19 17 -3 6 6 30 12 53
13 46 1 70 -20 70 -60 0 -20 -6 -23 -52 -27 l-53 -3 53 -2 c48 -2 52 -4 52
-26 0 -25 -23 -56 -42 -56 -6 0 -9 -3 -6 -6 4 -3 16 -1 27 6 17 9 21 8 21 -5
0 -8 5 -15 10 -15 6 0 10 33 10 79 0 61 -4 83 -17 99 -19 22 -61 32 -105 25z"/>
<path d="M4890 595 c0 -63 4 -105 10 -105 6 0 10 31 10 73 0 66 3 76 25 97 31
29 85 32 115 5 17 -15 20 -30 20 -97 0 -45 4 -78 10 -78 14 0 13 133 -1 164
-21 46 -107 56 -151 18 -16 -14 -18 -13 -18 6 0 12 -4 22 -10 22 -6 0 -10 -42
-10 -105z"/>
<path d="M5230 687 c-49 -17 -76 -72 -60 -122 20 -60 90 -88 154 -61 20 8 36
19 36 24 0 5 -18 1 -40 -10 -34 -17 -44 -18 -75 -8 -42 14 -65 44 -65 85 0 41
23 71 65 85 31 10 41 9 75 -8 22 -11 40 -16 40 -11 0 25 -84 42 -130 26z"/>
<path d="M5530 687 c-92 -31 -84 -162 11 -187 136 -37 212 132 83 186 -39 17
-48 17 -94 1z m85 -11 c38 -16 55 -42 55 -83 0 -65 -69 -106 -133 -79 -76 31
-78 129 -4 161 40 18 41 18 82 1z"/>
<path d="M6260 560 c0 -87 4 -140 10 -140 9 0 12 38 12 175 0 92 -2 105 -12
105 -6 0 -10 -53 -10 -140z"/>
<path d="M6323 685 c-18 -8 -33 -18 -33 -23 0 -5 18 -1 40 10 34 17 44 18 75
8 42 -14 65 -44 65 -85 0 -41 -23 -71 -65 -85 -31 -10 -41 -9 -76 8 -22 11
-38 15 -36 9 2 -7 20 -18 40 -26 86 -32 174 42 147 124 -20 60 -94 88 -157 60z"/>
<path d="M6600 687 c-92 -31 -84 -162 11 -187 136 -37 212 132 83 186 -39 17
-48 17 -94 1z m85 -11 c38 -16 55 -42 55 -83 0 -65 -69 -106 -133 -79 -76 31
-78 129 -4 161 40 18 41 18 82 1z"/>
<path d="M6830 595 c0 -63 4 -105 10 -105 6 0 10 32 10 75 0 62 4 79 20 95 11
11 26 20 34 20 8 0 17 4 20 9 9 14 -37 0 -56 -17 -16 -14 -18 -13 -18 6 0 12
-4 22 -10 22 -6 0 -10 -42 -10 -105z"/>
<path d="M7190 630 c0 -89 13 -117 61 -131 32 -10 44 -9 78 8 40 20 41 20 41
2 0 -11 5 -19 10 -19 6 0 10 42 10 105 0 63 -4 105 -10 105 -6 0 -10 -30 -10
-69 0 -87 -25 -125 -83 -125 -61 0 -77 24 -77 116 0 45 -4 78 -10 78 -6 0 -10
-30 -10 -70z"/>
<path d="M7490 595 c0 -63 4 -105 10 -105 6 0 10 31 10 73 0 66 3 76 25 97 31
29 85 32 115 5 17 -15 20 -30 20 -97 0 -45 4 -78 10 -78 14 0 13 133 -1 164
-21 46 -107 56 -151 18 -16 -14 -18 -13 -18 6 0 12 -4 22 -10 22 -6 0 -10 -42
-10 -105z"/>
<path d="M7790 595 c0 -63 4 -105 10 -105 6 0 10 42 10 105 0 63 -4 105 -10
105 -6 0 -10 -42 -10 -105z"/>
<path d="M7950 687 c-49 -17 -76 -72 -60 -122 20 -60 90 -88 154 -61 20 8 36
19 36 24 0 5 -18 1 -40 -10 -34 -17 -44 -18 -75 -8 -42 14 -65 44 -65 85 0 41
23 71 65 85 31 10 41 9 75 -8 22 -11 40 -16 40 -11 0 25 -84 42 -130 26z"/>
<path d="M8248 693 c-14 -2 -32 -11 -38 -19 -15 -17 1 -19 17 -3 6 6 30 12 53
13 46 1 70 -20 70 -60 0 -20 -6 -23 -52 -27 l-53 -3 53 -2 c48 -2 52 -4 52
-26 0 -25 -23 -56 -42 -56 -6 0 -9 -3 -6 -6 4 -3 16 -1 27 6 17 9 21 8 21 -5
0 -8 5 -15 10 -15 6 0 10 33 10 79 0 61 -4 83 -17 99 -19 22 -61 32 -105 25z"/>
<path d="M8510 687 c-49 -17 -76 -72 -60 -122 20 -60 90 -88 154 -61 20 8 36
19 36 24 0 5 -18 1 -40 -10 -34 -17 -44 -18 -75 -8 -42 14 -65 44 -65 85 0 41
23 71 65 85 31 10 41 9 75 -8 22 -11 40 -16 40 -11 0 25 -84 42 -130 26z"/>
<path d="M8802 685 c-58 -25 -77 -111 -35 -158 25 -27 86 -40 133 -27 22 6 40
15 40 19 0 5 -17 3 -39 -5 -47 -16 -103 -4 -126 29 -30 43 -22 47 86 47 l101
0 -7 27 c-9 37 -24 53 -62 70 -40 16 -49 16 -91 -2z m83 -9 c31 -13 55 -41 55
-65 0 -7 -33 -11 -90 -11 -49 0 -90 2 -90 4 0 24 26 60 52 71 41 18 33 17 73
1z"/>
<path d="M9052 693 c-33 -7 -56 -46 -43 -72 10 -18 30 -26 114 -45 52 -12 44
-58 -12 -71 -15 -3 -47 1 -70 8 -22 8 -41 11 -41 6 0 -14 78 -30 114 -23 19 3
43 15 52 26 25 27 9 50 -47 66 -24 7 -55 16 -69 20 -58 17 -11 90 50 77 14 -2
36 -7 50 -11 17 -5 22 -3 15 4 -12 12 -81 22 -113 15z"/>
<path d="M4620 575 c-20 -24 -4 -62 31 -74 18 -6 39 -11 48 -10 9 0 -2 6 -24
13 -46 13 -60 50 -29 73 15 11 15 13 2 13 -8 0 -21 -7 -28 -15z"/>
<path d="M8200 575 c-20 -24 -4 -62 31 -74 18 -6 39 -11 48 -10 9 0 -2 6 -24
13 -46 13 -60 50 -29 73 15 11 15 13 2 13 -8 0 -21 -7 -28 -15z"/>
</g>
</svg>
